<?xml version="1.0" standalone="no"?><!DOCTYPE svg PUBLIC "-//W3C//DTD SVG 1.1//EN" "http://www.w3.org/Graphics/SVG/1.1/DTD/svg11.dtd"><svg t="1708148647767" class="icon" viewBox="0 0 1024 1024" version="1.1" xmlns="http://www.w3.org/2000/svg" p-id="1982" xmlns:xlink="http://www.w3.org/1999/xlink" width="200" height="200"><path d="M295.1 427.46c-28.72 0-54.24 25.55-54.24 54.24 0 28.72 25.52 54.24 54.21 54.24 28.72 0 54.24-25.55 54.24-54.24 0-31.89-25.52-54.24-54.24-54.24h0.03z m437 0c-28.69 0-54.21 25.55-54.21 54.24 0 28.72 25.52 54.24 54.21 54.24 28.72 0 54.24-25.55 54.24-54.24 0-31.9-22.32-54.24-54.24-54.24z m-220.1 0c-28.72 0-54.24 25.55-54.24 54.24 0 28.72 25.55 54.24 54.24 54.24 28.72 0 54.24-25.55 54.24-54.24 3.17-31.9-22.32-54.24-54.24-54.24z m472.12-133.97c-25.55-57.41-63.81-108.45-108.45-153.12-47.87-44.64-102.1-76.56-162.69-102.08A532.035 532.035 0 0 0 515.2 0c-66.98 0-134 12.77-197.78 38.29-63.81 25.52-118.05 60.61-162.69 105.28-47.87 44.64-82.93 95.68-108.45 153.12-28.72 57.41-44.67 118.02-44.67 185 0 118.05 44.64 226.5 127.6 315.81l22.32 194.58c0 12.77 9.57 22.32 19.15 28.72 6.37 3.2 12.75 3.2 19.15 3.2 6.37 0 12.75 0 19.15-3.2l146.72-82.93c51.04 15.95 105.28 22.32 159.52 22.32 66.96 0 133.97-12.75 197.78-38.27 60.58-22.32 114.82-57.44 162.69-102.08 47.84-44.67 82.93-95.73 108.45-153.14s38.27-121.2 38.27-185.01c-0.02-66.98-12.77-127.59-38.29-188.2z m-66.98 344.52c-22.32 47.87-54.24 92.5-92.5 127.6-41.49 38.27-86.13 66.98-140.37 86.13-54.24 22.32-111.65 31.89-172.26 31.89-51.04 0-102.08-9.57-153.12-25.52-9.57-3.2-19.15-3.2-28.72 3.2L215.34 925.1l-19.15-153.12c0-6.37-3.2-15.95-9.57-22.32-70.18-70.18-111.65-165.89-111.65-267.97 0-54.24 12.77-108.45 35.09-156.32 22.32-47.84 54.24-92.5 92.5-127.6 41.47-41.47 86.13-70.18 140.37-89.3 54.21-22.32 111.65-31.92 172.26-31.92s118.02 9.57 172.26 31.92c51.04 19.15 98.88 51.04 140.37 86.13 41.44 38.27 70.16 79.73 92.5 127.6 22.32 51.04 35.07 102.08 35.07 156.29a449.715 449.715 0 0 1-38.25 159.52z" fill="#8C8C8C" p-id="1983"></path></svg>