<?xml version="1.0" standalone="no"?><!DOCTYPE svg PUBLIC "-//W3C//DTD SVG 1.1//EN" "http://www.w3.org/Graphics/SVG/1.1/DTD/svg11.dtd"><svg t="1708148414970" class="icon" viewBox="0 0 1024 1024" version="1.1" xmlns="http://www.w3.org/2000/svg" p-id="1952" xmlns:xlink="http://www.w3.org/1999/xlink" width="200" height="200"><path d="M881.92 549.76a75.52 75.52 0 0 0 7.466667-70.826667l-52.48-131.2a75.946667 75.946667 0 0 0-70.613334-47.786666h-138.453333V143.573333a76.16 76.16 0 0 0-75.946667-75.946666H512a76.16 76.16 0 0 0-76.16 75.946666v156.373334h-148.48a75.52 75.52 0 0 0-70.4 47.786666L164.266667 478.933333A75.093333 75.093333 0 0 0 201.813333 576a961.066667 961.066667 0 0 1-65.706666 245.546667 98.346667 98.346667 0 0 0 9.813333 91.733333 97.28 97.28 0 0 0 81.066667 42.666667H768a97.493333 97.493333 0 0 0 95.36-75.093334A666.24 666.24 0 0 0 853.333333 574.506667a75.946667 75.946667 0 0 0 28.586667-24.746667z m-658.346667-47.146667L277.333333 371.626667a11.946667 11.946667 0 0 1 11.093334-7.68h180.053333a32 32 0 0 0 32-32V143.573333a12.16 12.16 0 0 1 11.52-11.946666h40.32a11.946667 11.946667 0 0 1 11.946667 11.946666v188.373334a32 32 0 0 0 32 32h170.666666a11.733333 11.733333 0 0 1 11.093334 7.68l52.693333 130.986666a11.306667 11.306667 0 0 1-1.28 11.306667 11.52 11.52 0 0 1-9.813333 5.333333H234.666667a11.52 11.52 0 0 1-9.813334-5.333333 11.306667 11.306667 0 0 1-1.28-11.306667z m576 363.946667A33.706667 33.706667 0 0 1 768 892.373333h-140.373333a543.786667 543.786667 0 0 0 39.893333-151.68 32 32 0 0 0-64-5.76 504.533333 504.533333 0 0 1-46.08 157.44h-137.6a529.493333 529.493333 0 0 0 39.893333-151.68 32 32 0 0 0-64-5.76 498.773333 498.773333 0 0 1-46.08 157.44h-122.666666a33.066667 33.066667 0 0 1-28.16-14.933333 33.493333 33.493333 0 0 1-3.2-32 1024 1024 0 0 0 69.76-262.186667h525.013333a613.973333 613.973333 0 0 1 9.813333 283.306667z" p-id="1953"></path></svg>