<?xml version="1.0" standalone="no"?><!DOCTYPE svg PUBLIC "-//W3C//DTD SVG 1.1//EN" "http://www.w3.org/Graphics/SVG/1.1/DTD/svg11.dtd"><svg t="1707923484371" class="icon" viewBox="0 0 1024 1024" version="1.1" xmlns="http://www.w3.org/2000/svg" p-id="1711" xmlns:xlink="http://www.w3.org/1999/xlink" width="200" height="200"><path d="M613.27 511.83L274.6 850.5c-25.07 25.07-25.07 65.18 0 90.25s65.18 25.07 90.25 0l374.68-374.68c3.65-2.28 6.84-5.01 10.03-8.2 12.76-12.76 19.14-29.17 18.69-46.04 0-16.41-5.93-33.27-18.69-46.04-3.19-3.19-6.38-5.93-10.03-8.2L364.85 82.91c-12.31-12.31-28.72-18.69-45.13-18.69s-32.82 6.38-45.13 18.69c-25.07 25.07-25.07 65.18 0 90.25l338.68 338.67z" p-id="1712"></path></svg>