<?xml version="1.0" standalone="no"?><!DOCTYPE svg PUBLIC "-//W3C//DTD SVG 1.1//EN" "http://www.w3.org/Graphics/SVG/1.1/DTD/svg11.dtd"><svg t="1707896081615" class="icon" viewBox="0 0 1024 1024" version="1.1" xmlns="http://www.w3.org/2000/svg" p-id="1651" xmlns:xlink="http://www.w3.org/1999/xlink" width="200" height="200"><path d="M745.6 928H294.4c-51.2 0-96-44.8-96-102.4V390.4c0-19.2 16-32 32-32s32 16 32 32v438.4c0 19.2 12.8 35.2 28.8 35.2h451.2c16 0 28.8-16 28.8-35.2V390.4c0-19.2 16-32 32-32s32 16 32 32v438.4c6.4 54.4-35.2 99.2-89.6 99.2zM905.6 291.2h-768c-19.2 0-35.2-16-35.2-35.2s16-35.2 35.2-35.2h768c19.2 0 35.2 16 35.2 35.2s-16 35.2-35.2 35.2zM649.6 163.2h-256c-19.2 0-35.2-16-35.2-35.2s16-35.2 35.2-35.2h256c19.2 0 35.2 16 35.2 35.2s-16 35.2-35.2 35.2z" fill="#333333" p-id="1652"></path><path d="M409.6 739.2c-19.2 0-35.2-16-35.2-35.2v-288c0-19.2 16-35.2 35.2-35.2s35.2 16 35.2 35.2v288c0 19.2-16 35.2-35.2 35.2zM633.6 739.2c-19.2 0-35.2-16-35.2-35.2v-288c0-19.2 16-35.2 35.2-35.2s35.2 16 35.2 35.2v288c0 19.2-16 35.2-35.2 35.2z" fill="#333333" p-id="1653"></path></svg>