<?xml version="1.0" standalone="no"?><!DOCTYPE svg PUBLIC "-//W3C//DTD SVG 1.1//EN" "http://www.w3.org/Graphics/SVG/1.1/DTD/svg11.dtd"><svg t="1707231040705" class="icon" viewBox="0 0 1024 1024" version="1.1" xmlns="http://www.w3.org/2000/svg" p-id="1469" xmlns:xlink="http://www.w3.org/1999/xlink" width="200" height="200"><path d="M510.912 571.84c-19.008 0-39.04-5.44-56.96-15.296L90.88 353.28a55.68 55.68 0 0 1-26.816-50.304c0-20.8 12.288-39.36 30.144-48.128L460.672 75.52a118.272 118.272 0 0 1 101.632 0l367.552 179.328c17.856 8.768 29.056 27.328 30.144 48.128 0 20.736-10.048 40.448-26.816 50.304L567.872 556.544c-17.856 10.944-36.864 15.36-56.96 15.36z m448 32.832c0 76.544-39.104 145.408-101.696 180.416l-281.472 157.44A125.44 125.44 0 0 1 510.912 960c-22.336 0-44.672-6.592-64.768-17.472L164.608 784c-61.44-33.92-100.48-103.872-100.48-179.328l428.928 240.512a36.992 36.992 0 0 0 36.864 0l428.992-240.512z m0-189.184c0 75.52-39.104 145.408-101.696 179.328l-281.472 157.44a125.44 125.44 0 0 1-64.832 17.472c-22.336 0-44.672-6.528-64.768-17.472l-281.536-157.44c-61.44-33.92-100.48-103.872-100.48-179.328l428.928 240.576a36.992 36.992 0 0 0 36.864 0l428.992-240.576z" fill="#647787" p-id="1470"></path></svg>