<?xml version="1.0" standalone="no"?><!DOCTYPE svg PUBLIC "-//W3C//DTD SVG 1.1//EN" "http://www.w3.org/Graphics/SVG/1.1/DTD/svg11.dtd"><svg t="1707231330398" class="icon" viewBox="0 0 1024 1024" version="1.1" xmlns="http://www.w3.org/2000/svg" p-id="1634" xmlns:xlink="http://www.w3.org/1999/xlink" width="200" height="200"><path d="M847.488 483.456c22.784 0 44.544-4.352 64.448-12.288v190.592q0 71.936-62.272 107.84L686.272 864a174.336 174.336 0 0 0-126.464-166.592V526.208l127.168-73.408 36.608-21.12c31.552 32 75.456 51.776 123.904 51.776zM679.424 355.2a174.464 174.464 0 0 1 60.16-182.848l-165.248-95.36Q512 40.96 449.728 76.992L284.8 172.16a173.952 173.952 0 0 1 61.184 179.328L515.84 449.664l126.976-73.344 36.608-21.12zM303.36 428.992a173.76 173.76 0 0 1-126.528 54.4c-22.912 0-44.8-4.416-64.768-12.416v190.72q0 72 62.272 107.904L337.792 864a174.336 174.336 0 0 1 133.76-168.512V526.08L303.36 428.992zM515.84 500.8zM930.752 392.32q34.496-34.432 34.496-83.2t-34.496-83.2q-34.496-34.56-83.2-34.56-48.832 0-83.264 34.56-34.56 34.432-34.56 83.2t34.56 83.2q34.432 34.56 83.2 34.56t83.264-34.56z m-58.24-108.16q10.304 10.304 10.304 24.96t-10.304 24.96q-10.368 10.368-24.96 10.368-14.72 0-24.96-10.368-10.432-10.304-10.432-24.96t10.368-24.96q10.368-10.368 24.96-10.368 14.72 0 24.96 10.368zM595.2 948.288q34.56-34.56 34.56-83.264 0-48.768-34.56-83.2-34.432-34.56-83.2-34.56t-83.2 34.56q-34.56 34.432-34.56 83.2t34.56 83.2q34.432 34.56 83.2 34.56t83.2-34.56z m-58.24-108.288q10.368 10.368 10.368 24.96 0 14.72-10.304 25.024-10.368 10.368-24.96 10.368-14.72 0-25.024-10.368-10.368-10.368-10.368-24.96 0-14.656 10.368-24.96 10.368-10.368 24.96-10.368 14.656 0 24.96 10.304zM260.16 392.32q34.432-34.432 34.432-83.2t-34.432-83.2q-34.56-34.56-83.264-34.56-48.768 0-83.2 34.56-34.56 34.432-34.56 83.2t34.56 83.2q34.432 34.56 83.2 34.56t83.2-34.56z m-58.24-108.16q10.24 10.304 10.24 24.96t-10.24 24.96q-10.368 10.368-25.024 10.368t-24.96-10.368q-10.368-10.304-10.368-24.96t10.368-24.96q10.304-10.368 24.96-10.368t24.96 10.368z" p-id="1635"></path></svg>