<?xml version="1.0" standalone="no"?><!DOCTYPE svg PUBLIC "-//W3C//DTD SVG 1.1//EN" "http://www.w3.org/Graphics/SVG/1.1/DTD/svg11.dtd"><svg t="1707896293388" class="icon" viewBox="0 0 1024 1024" version="1.1" xmlns="http://www.w3.org/2000/svg" p-id="4655" xmlns:xlink="http://www.w3.org/1999/xlink" width="200" height="200"><path d="M116.02 954.12c-22.33 0.13-40.53-17.87-40.66-40.2a40.455 40.455 0 0 1 11.96-28.94l171.43-171.43c31.56-31.6 82.76-31.63 114.36-0.06l0.06 0.06L516.3 856.68l27.49-27.5a113.212 113.212 0 0 0 31.13-102.29l-4.04-19.81a121.319 121.319 0 0 1 33.15-109.57l69.54-69.54c40.02-38.3 103.11-38.3 143.13 0 7.86 7.93 20.66 7.98 28.59 0.12l0.12-0.12 28.71-28.7c7.93-7.86 7.98-20.66 0.12-28.59-0.04-0.03-0.08-0.07-0.12-0.11L559.55 156.01c-7.86-7.93-20.66-7.98-28.59-0.12l-0.12 0.12-28.71 28.7c-7.93 7.86-7.98 20.66-0.12 28.59 0.04 0.03 0.08 0.07 0.12 0.11 39.52 39.42 39.61 103.42 0.18 142.95l-0.18 0.18-64.69 64.69c-32.53 32.42-80.58 43.69-124.12 29.11l-14.55-4.85c-52.7-17.66-110.85-3.87-150 35.58l-4.04 4.04 85.71 85.71c16.96 14.53 18.93 40.05 4.4 57.01s-40.05 18.93-57.01 4.4a39.741 39.741 0 0 1-4.4-4.4l-85.71-85.71c-31.6-31.56-31.62-82.76-0.06-114.35l0.06-0.06 4.04-4.04c60.68-61.13 150.84-82.46 232.48-54.99l14.55 4.85c14.24 4.48 29.78 0.75 40.43-9.7l64.69-64.69c7.93-7.86 7.98-20.66 0.12-28.59-0.04-0.03-0.08-0.07-0.12-0.11-39.52-39.42-39.61-103.42-0.18-142.95l0.18-0.18 28.71-28.7c40.02-38.3 103.11-38.3 143.13 0L930.3 413.16c39.52 39.42 39.61 103.42 0.18 142.95l-0.18 0.18-28.71 28.7c-40.02 38.3-103.11 38.3-143.13 0-7.86-7.93-20.66-7.98-28.59-0.12l-0.12 0.12-69.54 69.54a40.43 40.43 0 0 0-10.92 36.39l4.04 19.81c12.89 63.67-7 129.57-52.96 175.47l-27.49 27.5c-31.56 31.6-82.76 31.63-114.36 0.06l-0.06-0.06-143.12-143.13L143.92 942a40.458 40.458 0 0 1-27.9 12.12z" fill="#333333" p-id="4656"></path></svg>