<?xml version="1.0" standalone="no"?><!DOCTYPE svg PUBLIC "-//W3C//DTD SVG 1.1//EN" "http://www.w3.org/Graphics/SVG/1.1/DTD/svg11.dtd"><svg t="1707208860573" class="icon" viewBox="0 0 1024 1024" version="1.1" xmlns="http://www.w3.org/2000/svg" p-id="1735" xmlns:xlink="http://www.w3.org/1999/xlink" width="200" height="200"><path d="M519.445333 576c93.184 0.213333 126.976 3.797333 161.92 22.037333a200.106667 200.106667 0 0 1 86.4 88.426667c17.856 35.84 21.162667 63.957333 21.546667 167.936L789.333333 904.32c0 18.965333-15.04 34.346667-33.578666 34.346667H140.245333C121.685333 938.666667 106.666667 923.285333 106.666667 904.298667v-52.117334c0.213333-89.386667 3.306667-125.376 18.368-159.018666l3.2-6.698667a200.106667 200.106667 0 0 1 86.4-88.426667c31.658667-16.512 62.4-21.034667 137.237333-21.888L376.533333 576z m0.768 64l-152.170666 0.021333c-76.736 0.384-103.893333 3.648-125.269334 15.146667a135.872 135.872 0 0 0-57.706666 60.821333c-10.538667 21.802667-13.781333 49.28-14.293334 124.096L170.666667 874.666667h554.666666l-0.106666-31.616c-0.597333-79.018667-3.456-103.616-13.354667-125.141334l-0.917333-1.92a135.893333 135.893333 0 0 0-57.706667-60.842666c-22.101333-11.861333-50.346667-14.954667-133.034667-15.146667z m373.546667-536.938667c6.037333 11.370667 14.464 31.146667 22.698667 58.197334 32.512 106.56 32.512 227.52-21.525334 351.872-7.509333 17.322667-27.050667 24.981333-43.605333 17.109333-16.576-7.893333-23.893333-28.309333-16.362667-45.653333 46.613333-107.285333 46.613333-210.965333 18.730667-302.357334a349.717333 349.717333 0 0 0-12.544-34.794666l-2.197333-5.034667-2.794667-5.866667c-8.832-16.64-3.114667-37.610667 12.8-46.848 15.893333-9.258667 35.946667-3.264 44.8 13.376zM437.333333 128a181.333333 181.333333 0 1 1 0 362.666667 181.333333 181.333333 0 0 1 0-362.666667z m328.384 61.568c3.349333 7.018667 7.808 18.709333 12.138667 34.496 16.810667 61.44 16.810667 131.029333-11.114667 202.666667-6.826667 17.493333-25.834667 25.856-42.496 18.709333-16.64-7.146667-24.618667-27.093333-17.813333-44.586667 21.845333-56.042667 21.845333-110.229333 8.789333-157.909333a185.92 185.92 0 0 0-6.314666-19.413333l-1.450667-3.370667c-8.064-16.896-1.536-37.44 14.570667-45.866667 16.085333-8.448 35.648-1.6 43.690666 15.274667zM437.333333 192a117.333333 117.333333 0 1 0 0 234.666667 117.333333 117.333333 0 0 0 0-234.666667z" fill="#000000" fill-opacity=".85" p-id="1736"></path></svg>